# xmcd
#
# Track frame offsets:
#	150
#	18312
#	43760
#	61897
#	97212
#	118018
#	138085
#	156569
#	172618
#	189332
#
# Disc length: 2836 seconds
#
# Revision: 0
# Processed by: cddbd v1.5.1PL0 Copyright (c) Steve Scherf et al.
# Submitted via: dBpowerAMP V4.0
#
DISCID=7f0b120a
DTITLE=Ben Harper - Burn To Shine
DYEAR=1900
DGENRE=Blues
TTITLE0=Alone
TTITLE1=The Woman In You
TTITLE2=Less
TTITLE3=Two hands of a prayer
TTITLE4=Please Bleed 
TTITLE5=Suzie Blue
TTITLE6=Steal My Kisses
TTITLE7=Burn To Shine
TTITLE8=Show Me a Little Shame
TTITLE9=Forgiven
EXTD=
EXTT0=
EXTT1=
EXTT2=
EXTT3=
EXTT4=
EXTT5=
EXTT6=
EXTT7=
EXTT8=
EXTT9=
PLAYORDER=
